<?xml version="1.0" standalone="no"?>
<!DOCTYPE svg PUBLIC "-//W3C//DTD SVG 20010904//EN"
 "http://www.w3.org/TR/2001/REC-SVG-20010904/DTD/svg10.dtd">
<svg version="1.0" xmlns="http://www.w3.org/2000/svg"
 width="254.000000pt" height="246.000000pt" viewBox="0 0 254.000000 246.000000"
 preserveAspectRatio="xMidYMid meet">

<g transform="translate(0.000000,246.000000) scale(0.100000,-0.100000)"
fill="#000000" stroke="none">
<path d="M896 1810 c-135 -91 -239 -228 -292 -385 -35 -105 -44 -273 -20 -385
57 -269 275 -493 546 -561 116 -30 300 -23 407 14 106 36 196 90 274 164 66
63 149 172 149 198 0 10 -50 41 -54 33 -136 -248 -406 -392 -673 -358 -163 21
-283 79 -398 195 -91 90 -141 176 -174 295 -26 91 -28 247 -6 335 23 89 89
217 144 277 l48 52 128 -192 128 -192 70 63 c38 34 84 74 102 89 l32 27 103
-91 c56 -50 105 -86 109 -81 3 5 59 92 125 191 65 100 122 182 127 182 15 0
102 -115 132 -177 l31 -62 28 15 c23 12 28 20 22 37 -14 48 -97 167 -158 228
-56 55 -175 139 -197 139 -5 0 -70 -55 -146 -122 -76 -67 -147 -129 -158 -139
-19 -17 -24 -14 -175 122 -85 76 -160 139 -167 139 -6 0 -45 -23 -87 -50z
m806 -85 c-27 -46 -204 -305 -208 -305 -11 0 -124 105 -121 113 1 4 63 61 137
126 l135 118 32 -21 c17 -11 29 -25 25 -31z m-593 -71 c72 -64 131 -119 131
-123 0 -7 -115 -111 -123 -111 -2 0 -51 70 -108 156 l-103 157 23 18 c13 11
29 19 36 19 7 0 72 -52 144 -116z"/>
<path d="M1270 1280 c-26 -26 -25 -52 3 -78 29 -27 51 -28 77 -2 27 27 26 65
-2 84 -30 21 -54 20 -78 -4z"/>
<path d="M1260 1031 c-15 -30 -12 -56 9 -75 48 -44 122 15 87 70 -21 31 -80
34 -96 5z"/>
</g>
</svg>
