<?xml version="1.0" standalone="no"?>
<!DOCTYPE svg PUBLIC "-//W3C//DTD SVG 20010904//EN"
 "http://www.w3.org/TR/2001/REC-SVG-20010904/DTD/svg10.dtd">
<svg version="1.0" xmlns="http://www.w3.org/2000/svg"
 width="1000.000000pt" height="181.000000pt" viewBox="0 0 1000.000000 181.000000"
 preserveAspectRatio="xMidYMid meet">

<g transform="translate(0.000000,181.000000) scale(0.100000,-0.100000)"
fill="#000000" stroke="none">
<path d="M9255 1703 c-69 -17 -131 -112 -122 -189 11 -98 86 -159 187 -152 69
5 115 35 141 92 65 143 -53 286 -206 249z m115 -41 c74 -37 100 -124 61 -200
-25 -49 -67 -72 -129 -72 -57 0 -100 28 -128 83 -20 38 -14 109 13 146 24 33
79 61 118 61 17 0 46 -8 65 -18z"/>
<path d="M9230 1530 c0 -77 3 -101 13 -98 6 3 13 23 15 46 2 28 8 42 17 42 15
0 55 -38 55 -51 0 -11 30 -39 41 -39 15 0 11 15 -16 53 -24 36 -24 37 -5 47
24 13 27 62 4 81 -8 7 -40 14 -70 17 l-54 4 0 -102z m108 46 c5 -23 -14 -36
-50 -36 -25 0 -28 4 -28 31 0 29 2 30 37 27 28 -2 39 -8 41 -22z"/>
<path d="M8127 1434 c-4 -4 -7 -229 -7 -501 l0 -493 55 0 55 0 -2 498 -3 497
-45 3 c-25 2 -49 0 -53 -4z"/>
<path d="M8800 940 l0 -500 50 0 50 0 2 161 3 161 150 -161 150 -160 80 -1 80
0 -168 168 -167 167 145 135 c80 74 145 138 145 142 0 5 -30 8 -67 8 l-68 -1
-137 -134 c-76 -74 -140 -135 -143 -135 -3 0 -5 146 -5 325 l0 325 -50 0 -50
0 0 -500z"/>
<path d="M915 1389 c-87 -13 -195 -68 -261 -133 -153 -154 -183 -418 -69 -612
84 -143 241 -228 420 -228 145 1 260 49 354 149 92 98 131 203 131 348 -1 243
-171 444 -405 477 -79 11 -87 11 -170 -1z m247 -132 c75 -37 134 -98 172 -177
29 -60 31 -73 31 -175 0 -98 -3 -116 -27 -167 -36 -77 -108 -152 -177 -185
-112 -53 -264 -41 -367 30 -176 121 -212 401 -74 576 41 52 84 82 158 112 72
29 209 22 284 -14z"/>
<path d="M2030 1073 c0 -392 12 -460 96 -553 115 -127 352 -142 493 -31 48 38
96 128 110 205 6 35 11 189 11 368 l0 308 -55 0 -55 0 0 -300 c0 -319 -6 -377
-47 -448 -38 -66 -89 -95 -181 -100 -70 -4 -82 -1 -131 25 -41 21 -60 40 -82
79 -41 73 -50 165 -47 477 l3 267 -57 0 -58 0 0 -297z"/>
<path d="M3230 1320 l0 -50 155 0 155 0 0 -415 0 -415 55 0 55 0 0 415 0 415
155 0 155 0 0 50 0 50 -365 0 -365 0 0 -50z"/>
<path d="M4460 905 l0 -465 55 0 55 0 0 210 0 210 220 0 220 0 0 50 0 50 -220
0 -220 0 0 155 0 155 235 0 235 0 0 50 0 50 -290 0 -290 0 0 -465z"/>
<path d="M5560 905 l0 -465 55 0 55 0 0 465 0 465 -55 0 -55 0 0 -465z"/>
<path d="M6170 1320 l0 -50 155 0 155 0 0 -415 0 -415 55 0 55 0 0 415 0 415
155 0 155 0 0 50 0 50 -365 0 -365 0 0 -50z"/>
<path d="M7416 569 c-52 -41 -18 -139 48 -139 39 0 79 41 79 80 0 24 -7 40
-27 57 -34 28 -65 29 -100 2z"/>
</g>
</svg>
